# xmcd
#
# Track frame offsets: 
#        150
#        2242
#        3307
#        4855
#        6480
#        8020
#        9610
#        11180
#        11992
#        13142
#        15660
#        16482
#        19032
#        21530
#        23115
#        30607
#        43502
#        44730
#        50267
#        55287
#        60660
#        65337
#        70597
#        80635
#        120770
#        125137
#        128782
#        132545
#        136345
#        140107
#        143712
#        147545
#        151355
#        157402
#        181177
#        182340
#        184732
#        185887
#        187155
#        189300
#        191690
#        192830
#        193975
#        194547
#        195127
#        195725
#        196252
#        198577
#        199135
#        199562
#        200230
#        200805
#        205367
#        209845
#        214537
#        216782
#        217882
#        218807
#        229812
#        244282
#        245365
#        248320
#        251295
#        254220
#        256835
#        259470
#        262025
#        264940
#        267955
#        272095
#        277065
#        280005
#        281855
#        284332
#        287900
#        289290
#        301740
#        304065
#        304710
#        306142
#        307210
#        327035
#        341835
#        347890
#        348720
#        350190
#
# Disc length: 4767 seconds
#
# Revision: 2
# Processed by: cddbd v1.5.2PL0 Copyright (c) Steve Scherf et al.
# Submitted via: ExactAudioCopy v0.95b4
#
DISCID=5f129d56
DTITLE=Mark C.Gridley - Jazz Styles (9th Ed.) Classic CD1
DYEAR=2006
DGENRE=Jazz
TTITLE0=01 No Figs
TTITLE1=02 No Figs
TTITLE2=03 No Figs
TTITLE3=04 No Figs
TTITLE4=05 No Figs
TTITLE5=06 No Figs
TTITLE6=07 No Figs
TTITLE7=08 No Figs
TTITLE8=09 No Figs
TTITLE9=10 Blue Rondo a la Turk
TTITLE10=11 Blue Rondo a la Turk
TTITLE11=12 Blue Rondo a la Turk
TTITLE12=13 Blue Rondo a la Turk
TTITLE13=14 Blue Rondo a la Turk
TTITLE14=15 Blue Rondo a la Turk
TTITLE15=16 Blue Rondo a la Turk
TTITLE16=17 Flabes of Faubus
TTITLE17=18 Flabes of Faubus
TTITLE18=19 Flabes of Faubus
TTITLE19=20 Flabes of Faubus
TTITLE20=21 Flabes of Faubus
TTITLE21=22 Flabes of Faubus
TTITLE22=23 Flabes of Faubus
TTITLE23=24 Solar
TTITLE24=25 The Promise
TTITLE25=26 The Promise
TTITLE26=27 The Promise
TTITLE27=28 The Promise
TTITLE28=29 The Promise
TTITLE29=30 The Promise
TTITLE30=31 The Promise
TTITLE31=32 The Promise
TTITLE32=33 The Promise
TTITLE33=34 Ghost- First Variation
TTITLE34=35 Maiden Voyage
TTITLE35=36 Maiden Voyage
TTITLE36=37 Maiden Voyage
TTITLE37=38 Maiden Voyage
TTITLE38=39 Maiden Voyage
TTITLE39=40 Maiden Voyage
TTITLE40=41 Maiden Voyage
TTITLE41=42 Maiden Voyage
TTITLE42=43 Maiden Voyage
TTITLE43=44 Maiden Voyage
TTITLE44=45 Maiden Voyage
TTITLE45=46 Maiden Voyage
TTITLE46=47 Maiden Voyage
TTITLE47=48 Maiden Voyage
TTITLE48=49 Maiden Voyage
TTITLE49=50 Maiden Voyage
TTITLE50=51 Maiden Voyage
TTITLE51=52 Maiden Voyage
TTITLE52=53 Maiden Voyage
TTITLE53=54 Maiden Voyage
TTITLE54=55 Maiden Voyage
TTITLE55=56 Civilization Day
TTITLE56=57 Civilization Day
TTITLE57=58 Civilization Day
TTITLE58=59 Civilization Day
TTITLE59=60 Masqualero
TTITLE60=61 Masqualero
TTITLE61=62 Masqualero
TTITLE62=63 Masqualero
TTITLE63=64 Masqualero
TTITLE64=65 Masqualero
TTITLE65=66 Masqualero
TTITLE66=67 Masqualero
TTITLE67=68 Masqualero
TTITLE68=69 Masqualero
TTITLE69=70 Masqualero
TTITLE70=71 Masqualero
TTITLE71=72 Masqualero
TTITLE72=73 Masqualero
TTITLE73=74 Steps
TTITLE74=75 Steps
TTITLE75=76 Steps
TTITLE76=77 Steps
TTITLE77=78 Steps
TTITLE78=79 Steps
TTITLE79=80 Steps
TTITLE80=81 Surucucu
TTITLE81=82 Chameleon
TTITLE82=83 Chameleon
TTITLE83=84 Chameleon
TTITLE84=85 Chameleon
TTITLE85=86 Chameleon
EXTD=YEAR: 1995
EXTT0=
EXTT1=
EXTT2=
EXTT3=
EXTT4=
EXTT5=
EXTT6=
EXTT7=
EXTT8=
EXTT9=
EXTT10=
EXTT11=
EXTT12=
EXTT13=
EXTT14=
EXTT15=
EXTT16=
EXTT17=
EXTT18=
EXTT19=
EXTT20=
EXTT21=
EXTT22=
EXTT23=
EXTT24=
EXTT25=
EXTT26=
EXTT27=
EXTT28=
EXTT29=
EXTT30=
EXTT31=
EXTT32=
EXTT33=
EXTT34=
EXTT35=
EXTT36=
EXTT37=
EXTT38=
EXTT39=
EXTT40=
EXTT41=
EXTT42=
EXTT43=
EXTT44=
EXTT45=
EXTT46=
EXTT47=
EXTT48=
EXTT49=
EXTT50=
EXTT51=
EXTT52=
EXTT53=
EXTT54=
EXTT55=
EXTT56=
EXTT57=
EXTT58=
EXTT59=
EXTT60=
EXTT61=
EXTT62=
EXTT63=
EXTT64=
EXTT65=
EXTT66=
EXTT67=
EXTT68=
EXTT69=
EXTT70=
EXTT71=
EXTT72=
EXTT73=
EXTT74=
EXTT75=
EXTT76=
EXTT77=
EXTT78=
EXTT79=
EXTT80=
EXTT81=
EXTT82=
EXTT83=
EXTT84=
EXTT85=
PLAYORDER=
